<?xml version="1.0" encoding="utf-8"?>
<!-- Generator: Adobe Illustrator 26.4.1, SVG Export Plug-In . SVG Version: 6.00 Build 0)  -->
<svg version="1.1" id="Layer_1" xmlns="http://www.w3.org/2000/svg" xmlns:xlink="http://www.w3.org/1999/xlink" x="0px" y="0px"
	 viewBox="0 0 98.05 137.98" style="enable-background:new 0 0 98.05 137.98;" xml:space="preserve">
<style type="text/css">
	.st0{opacity:1;}
</style>
<g>
	<g class="st0">
		<path d="M64.46,96.21c-0.37-1.31-0.69-2.63-1.11-3.92C61.13,85.34,56.12,80.72,50,77.44c-8.06-4.32-16.42-8.08-24.57-12.24
			c-3.17-1.62-6.16-3.61-9.13-5.58c-1.75-1.16-3.27-2.98-5.23,0.51c-1.04-3.53-1.89-6.42-2.82-9.55c-1.45,0.57-2.72,1.06-4.38,1.71
			c0.71-3.41,1.37-6.54,2.08-9.98c-1.64,0-3.08,0-5.21,0c2.22-3.24,4.11-5.98,6.15-8.94c-1.54-0.61-2.86-1.14-4.48-1.79
			c2.8-1.92,5.32-3.65,8.56-5.88c-1.46-0.8-2.68-1.48-3.9-2.15c0.19-0.29,0.37-0.58,0.56-0.86c3.14-0.64,6.28-1.28,9.85-2.01
			c-0.92-1.45-1.72-2.71-2.77-4.36c3.66,0.34,6.9,0.64,10.52,0.98c-0.4-1.59-0.72-2.83-1.2-4.7c3.33,1.36,6.25,2.55,9.47,3.87
			c0-1.29,0-2.36,0-3.65c4.22,2.18,8.13,4.21,12.05,6.23c0.2-0.24,0.41-0.48,0.61-0.72c-2.76-5.31-5.51-10.61-8.27-15.92
			c0.1-0.06,0.2-0.13,0.3-0.19c4.87,5.57,9.74,11.14,14.6,16.71c0.15-0.13,0.31-0.27,0.46-0.4c-2.37-4.58-4.73-9.16-7.1-13.75
			c0.21-0.14,0.42-0.28,0.63-0.41c0.43,0.4,0.89,0.77,1.28,1.21c6.53,7.42,12.59,15.25,20.28,21.63c2.5,2.08,4.35,5.01,6.26,7.71
			c1.91,2.71,3.53,5.62,5.38,8.64c-2.22,0.9-1.54,2.46-0.41,3.67c2.14,2.29,4.33,4.59,6.82,6.46c1.77,1.33,2.11,2.52,1.31,4.41
			c-1.73,4.09-6.55,7.72-10.61,7.75c2.58-6.03-1.27-9.69-4.97-13.32c-1.29-1.27-3.03-2.07-4.39-3.28C64.1,46,60.15,43,57,39.34
			c-6.76-7.85-14.74-12.92-25.37-12.81c-7.96,0.08-14.23,4.52-15.84,10.95c-0.99,3.92-0.28,7.56,1.73,11.04
			c3.28,5.67,8.18,9.59,13.8,12.65c4.53,2.47,9.17,4.72,13.77,7.06c6.39,3.24,12.12,7.29,16.26,13.27
			C64.39,85.9,65.82,90.73,64.46,96.21z M61.2,26.79c0.25-0.2,0.49-0.41,0.74-0.61c-1.19-1.48-2.38-2.97-3.57-4.45
			c-0.28,0.24-0.57,0.47-0.85,0.71C58.74,23.89,59.97,25.34,61.2,26.79z M68.61,34.64c-0.28,0.19-0.57,0.37-0.85,0.56
			c1.12,1.35,2.24,2.71,3.35,4.06c0.22-0.18,0.44-0.36,0.67-0.53C70.72,37.37,69.66,36.01,68.61,34.64z"/>
		<path d="M49.12,98.47c11.16,0,22.33,0,33.49,0c3.9,0,4.4,0.52,4.4,4.5c0,10,0.01,20,0,30c0,3.15-0.65,3.81-3.79,3.81
			c-18.33,0-36.66,0-54.99,0c-0.58,0-1.24,0.14-1.72-0.09c-0.4-0.19-0.75-0.8-0.8-1.26c-0.03-0.29,0.49-0.84,0.84-0.93
			c0.63-0.16,1.32-0.07,1.99-0.07c17.66,0,35.33-0.05,52.99,0.06c2.56,0.02,3.25-0.73,3.21-3.24c-0.14-9.16-0.1-18.33,0.01-27.5
			c0.03-2.26-0.63-2.97-2.96-2.96c-21.83,0.09-43.66,0.08-65.49,0c-2.17-0.01-2.88,0.6-2.86,2.81c0.1,9.41,0.08,18.83,0.01,28.25
			c-0.01,1.9,0.49,2.8,2.54,2.61c1.57-0.14,3.17-0.11,4.74,0.03c0.55,0.05,1.05,0.67,1.58,1.03c-0.56,0.42-1.09,1.17-1.67,1.21
			c-2.07,0.15-4.16,0.01-6.24,0.07c-2.35,0.07-3.31-1.08-3.29-3.35c0.04-5.17,0.01-10.33,0.01-15.5c0-5.17,0-10.33,0.01-15.5
			c0.01-3.16,0.78-3.97,4.01-3.97C26.46,98.45,37.79,98.47,49.12,98.47z"/>
		<path d="M56.8,127.02c-2.51,0.87-3.85,0.25-4.23-1.96c-0.38-2.22-1.65-3.07-3.84-2.7c-0.57,0.09-1.17,0.09-1.74,0
			c-2.2-0.35-3.46,0.53-3.83,2.74c-0.37,2.24-1.71,2.78-3.99,1.95c1.27-3.4,2.53-6.8,3.81-10.18c0.91-2.41,1.74-4.85,2.81-7.19
			c0.28-0.61,1.29-1.16,2-1.22c0.74-0.06,2.01,0.32,2.22,0.85C52.35,115.14,54.53,121.03,56.8,127.02z M45.43,119.18
			c1.87,0,3.45,0,5.37,0c-0.92-2.63-1.75-5-2.58-7.37c-0.19,0.05-0.37,0.09-0.56,0.14C46.93,114.29,46.21,116.62,45.43,119.18z"/>
		<path d="M29.77,116.61c2.27,3.46,4.49,6.84,6.79,10.36c-1.85,0.81-3.06,0.47-4.08-1.11c-1.53-2.35-3.19-4.62-4.86-7.01
			c-3.79,2.03-1.53,5.66-2.58,8.4c-0.76,0-1.55,0-2.46,0c0-6.25,0-12.38,0-18.74c0.82-0.05,1.59-0.1,2.66-0.16c0,2.98,0,5.77,0,8.56
			c0.21,0.1,0.41,0.2,0.62,0.29c1.97-2.35,4.04-4.63,5.87-7.08c1.21-1.63,2.59-2.06,4.88-1.54
			C34.23,111.38,32.05,113.94,29.77,116.61z"/>
		<path d="M59.37,108.49c0.92,0,1.63,0,2.61,0c0,5.47,0,10.83,0,16.51c2.39,0,4.53-0.08,6.65,0.06c0.58,0.04,1.11,0.75,1.66,1.16
			c-0.53,0.35-1.05,0.99-1.6,1.01c-3.05,0.1-6.1,0.05-9.34,0.05C59.37,120.93,59.37,114.82,59.37,108.49z"/>
		<path d="M74.78,127.6c-0.68-0.54-1.94-1.06-1.95-1.61c-0.14-5.79-0.09-11.58-0.09-17.48c1-0.06,1.72-0.11,2.64-0.17
			c0,6.28,0,12.45,0,18.62C75.18,127.17,74.98,127.39,74.78,127.6z"/>
	</g>
	<g>
	</g>
</g>
</svg>
